REM DIRINDEX 1\2,1\4,1\5,1\6,1\7,1\3\8,1\3\9,1\3\10
REM DIRNAME cjc113,folder01,folder02,folder03,folder04,folder05,folder06,folder07,folder08,folder09
TITLE ""
FILE "DB4500_5th_2A_31.mp3" MP3
  TRACK 01 AUDIO
    TITLE "0:"
    INDEX 01 00:00:00
  TRACK 02 AUDIO
    TITLE "8:cjc113_1164"
    INDEX 01 00:00:01
  TRACK 03 AUDIO
    TITLE "0:"
    INDEX 01 00:01:13
  TRACK 04 AUDIO
    TITLE "9:cjc113_1165"
    INDEX 01 00:01:30
  TRACK 05 AUDIO
    TITLE "0:"
    INDEX 01 00:02:49
  TRACK 06 AUDIO
    TITLE "10:cjc113_1166"
    INDEX 01 00:02:65
  TRACK 07 AUDIO
    TITLE "0:"
    INDEX 01 00:05:32
  TRACK 08 AUDIO
    TITLE "8:cjc113_1167"
    INDEX 01 00:06:06
  TRACK 09 AUDIO
    TITLE "0:"
    INDEX 01 00:07:25
  TRACK 10 AUDIO
    TITLE "9:cjc113_1168"
    INDEX 01 00:07:51
  TRACK 11 AUDIO
    TITLE "0:"
    INDEX 01 00:08:73
  TRACK 12 AUDIO
    TITLE "10:cjc113_1169"
    INDEX 01 00:09:20
  TRACK 13 AUDIO
    TITLE "0:"
    INDEX 01 00:12:34
  TRACK 14 AUDIO
    TITLE "8:cjc113_1170"
    INDEX 01 00:13:06
  TRACK 15 AUDIO
    TITLE "0:"
    INDEX 01 00:14:17
  TRACK 16 AUDIO
    TITLE "9:cjc113_1171"
    INDEX 01 00:14:37
  TRACK 17 AUDIO
    TITLE "0:"
    INDEX 01 00:15:44
  TRACK 18 AUDIO
    TITLE "10:cjc113_1172"
    INDEX 01 00:15:66
  TRACK 19 AUDIO
    TITLE "0:"
    INDEX 01 00:18:31
  TRACK 20 AUDIO
    TITLE "8:cjc113_1173"
    INDEX 01 00:19:03
  TRACK 21 AUDIO
    TITLE "0:"
    INDEX 01 00:20:12
  TRACK 22 AUDIO
    TITLE "9:cjc113_1174"
    INDEX 01 00:20:36
  TRACK 23 AUDIO
    TITLE "0:"
    INDEX 01 00:21:47
  TRACK 24 AUDIO
    TITLE "10:cjc113_1175"
    INDEX 01 00:21:66
  TRACK 25 AUDIO
    TITLE "0:"
    INDEX 01 00:24:37
  TRACK 26 AUDIO
    TITLE "8:cjc113_1176"
    INDEX 01 00:25:11
  TRACK 27 AUDIO
    TITLE "0:"
    INDEX 01 00:26:11
  TRACK 28 AUDIO
    TITLE "9:cjc113_1177"
    INDEX 01 00:26:36
  TRACK 29 AUDIO
    TITLE "0:"
    INDEX 01 00:27:49
  TRACK 30 AUDIO
    TITLE "10:cjc113_1178"
    INDEX 01 00:27:71
  TRACK 31 AUDIO
    TITLE "0:"
    INDEX 01 00:30:55
  TRACK 32 AUDIO
    TITLE "8:cjc113_1179"
    INDEX 01 00:31:27
  TRACK 33 AUDIO
    TITLE "0:"
    INDEX 01 00:32:29
  TRACK 34 AUDIO
    TITLE "9:cjc113_1180"
    INDEX 01 00:32:52
  TRACK 35 AUDIO
    TITLE "0:"
    INDEX 01 00:34:24
  TRACK 36 AUDIO
    TITLE "10:cjc113_1181"
    INDEX 01 00:34:49
  TRACK 37 AUDIO
    TITLE "0:"
    INDEX 01 00:37:38
  TRACK 38 AUDIO
    TITLE "8:cjc113_1182"
    INDEX 01 00:38:12
  TRACK 39 AUDIO
    TITLE "0:"
    INDEX 01 00:39:19
  TRACK 40 AUDIO
    TITLE "9:cjc113_1183"
    INDEX 01 00:39:45
  TRACK 41 AUDIO
    TITLE "0:"
    INDEX 01 00:40:56
  TRACK 42 AUDIO
    TITLE "10:cjc113_1184"
    INDEX 01 00:41:02
  TRACK 43 AUDIO
    TITLE "0:"
    INDEX 01 00:44:12
  TRACK 44 AUDIO
    TITLE "8:cjc113_1185"
    INDEX 01 00:44:52
  TRACK 45 AUDIO
    TITLE "0:"
    INDEX 01 00:45:61
  TRACK 46 AUDIO
    TITLE "9:cjc113_1186"
    INDEX 01 00:46:02
  TRACK 47 AUDIO
    TITLE "0:"
    INDEX 01 00:47:36
  TRACK 48 AUDIO
    TITLE "10:cjc113_1187"
    INDEX 01 00:47:54
  TRACK 49 AUDIO
    TITLE "0:"
    INDEX 01 00:51:67
  TRACK 50 AUDIO
    TITLE "10:cjc113_1188"
    INDEX 01 00:52:28
  TRACK 51 AUDIO
    TITLE "0:"
    INDEX 01 00:55:06
  TRACK 52 AUDIO
    TITLE "8:cjc113_1189"
    INDEX 01 00:55:50
  TRACK 53 AUDIO
    TITLE "0:"
    INDEX 01 00:56:57
  TRACK 54 AUDIO
    TITLE "9:cjc113_1190"
    INDEX 01 00:56:74
  TRACK 55 AUDIO
    TITLE "0:"
    INDEX 01 00:58:48
  TRACK 56 AUDIO
    TITLE "10:cjc113_1191"
    INDEX 01 00:58:66
  TRACK 57 AUDIO
    TITLE "0:"
    INDEX 01 01:02:48
  TRACK 58 AUDIO
    TITLE "8:cjc113_1192"
    INDEX 01 01:03:18
  TRACK 59 AUDIO
    TITLE "0:"
    INDEX 01 01:04:39
  TRACK 60 AUDIO
    TITLE "9:cjc113_1193"
    INDEX 01 01:04:58
  TRACK 61 AUDIO
    TITLE "0:"
    INDEX 01 01:06:20
  TRACK 62 AUDIO
    TITLE "10:cjc113_1194"
    INDEX 01 01:06:42
  TRACK 63 AUDIO
    TITLE "0:"
    INDEX 01 01:10:24
  TRACK 64 AUDIO
    TITLE "8:cjc113_1195"
    INDEX 01 01:10:67
  TRACK 65 AUDIO
    TITLE "0:"
    INDEX 01 01:11:72
  TRACK 66 AUDIO
    TITLE "9:cjc113_1196"
    INDEX 01 01:12:17
  TRACK 67 AUDIO
    TITLE "0:"
    INDEX 01 01:13:38
  TRACK 68 AUDIO
    TITLE "10:cjc113_1197"
    INDEX 01 01:13:57
  TRACK 69 AUDIO
    TITLE "0:"
    INDEX 01 01:18:39
  TRACK 70 AUDIO
    TITLE "8:cjc113_1198"
    INDEX 01 01:19:03
  TRACK 71 AUDIO
    TITLE "0:"
    INDEX 01 01:20:08
  TRACK 72 AUDIO
    TITLE "9:cjc113_1199"
    INDEX 01 01:20:26
  TRACK 73 AUDIO
    TITLE "0:"
    INDEX 01 01:21:57
  TRACK 74 AUDIO
    TITLE "10:cjc113_1200"
    INDEX 01 01:22:01
  TRACK 75 AUDIO
    TITLE "0:"
    INDEX 01 01:25:17
